<svg width="140" height="40" viewBox="0 0 140 40" fill="none" xmlns="http://www.w3.org/2000/svg">
<path d="M140 35.9904C140 38.2056 138.198 40 135.969 40H4.03674C1.8086 40 0 38.2056 0 35.9904V4.01487C0 1.80067 1.8086 0 4.03674 0H135.967C138.198 0 139.999 1.80067 139.999 4.01487L140 35.9904Z" fill="white"/>
<path d="M30.9433 19.7808C30.913 16.4066 33.7078 14.7651 33.8356 14.6887C32.2528 12.3824 29.7994 12.0672 28.9373 12.0421C26.8768 11.8254 24.8781 13.2743 23.8285 13.2743C22.7579 13.2743 21.1416 12.0631 19.3995 12.0986C17.1578 12.1332 15.0606 13.4303 13.9104 15.4445C11.5367 19.5515 13.3071 25.5869 15.5813 28.9066C16.7189 30.5325 18.0482 32.3478 19.7882 32.2839C21.4904 32.2138 22.1263 31.1994 24.1805 31.1994C26.2158 31.1994 26.8129 32.2839 28.5874 32.2431C30.4143 32.2138 31.5645 30.61 32.6623 28.9695C33.977 27.106 34.505 25.2708 34.5259 25.1765C34.483 25.1619 30.9779 23.825 30.9433 19.7808Z" fill="#617288"/>
<path d="M27.5911 9.85793C28.5067 8.71366 29.1331 7.15692 28.9592 5.57715C27.6341 5.63577 25.9769 6.49319 25.0226 7.61232C24.1783 8.59851 23.4241 10.2149 23.6189 11.735C25.1074 11.846 26.6358 10.9844 27.5911 9.85793Z" fill="#617288"/>
<path d="M55.5776 32.0503H53.1987L51.8956 27.958H47.366L46.1247 32.0503H43.8086L48.2962 18.1182H51.068L55.5776 32.0503ZM51.5027 26.2411L50.3243 22.6031C50.1996 22.2314 49.966 21.3562 49.6214 19.9785H49.5795C49.4422 20.5711 49.2212 21.4463 48.9174 22.6031L47.7599 26.2411H51.5027Z" fill="#617288"/>
<path d="M67.1178 26.9036C67.1178 28.6121 66.6558 29.9626 65.7319 30.9541C64.9043 31.8366 63.8767 32.2773 62.65 32.2773C61.3259 32.2773 60.3748 31.802 59.7955 30.8515H59.7536V36.1435H57.5203V25.3113C57.5203 24.2371 57.492 23.1347 57.4375 22.0041H59.4016L59.5263 23.5964H59.5682C60.313 22.3967 61.4433 21.7979 62.9601 21.7979C64.1459 21.7979 65.1358 22.2658 65.9278 23.2028C66.7218 24.1408 67.1178 25.3741 67.1178 26.9036ZM64.8425 26.9852C64.8425 26.0074 64.6225 25.2013 64.1805 24.5669C63.6976 23.9053 63.0491 23.5744 62.2362 23.5744C61.6852 23.5744 61.1845 23.7587 60.7372 24.122C60.2889 24.4884 59.9956 24.9668 59.8583 25.5594C59.7892 25.8358 59.7546 26.0619 59.7546 26.2399V27.9149C59.7546 28.6456 59.9788 29.2623 60.4272 29.7658C60.8755 30.2694 61.4579 30.5206 62.1744 30.5206C63.0156 30.5206 63.6703 30.1961 64.1386 29.5491C64.6079 28.9011 64.8425 28.0468 64.8425 26.9852Z" fill="#617288"/>
<path d="M78.6792 26.9036C78.6792 28.6121 78.2172 29.9626 77.2923 30.9541C76.4658 31.8366 75.4381 32.2773 74.2115 32.2773C72.8874 32.2773 71.9362 31.802 71.358 30.8515H71.3161V36.1435H69.0828V25.3113C69.0828 24.2371 69.0545 23.1347 69 22.0041H70.9641L71.0888 23.5964H71.1307C71.8744 22.3967 73.0047 21.7979 74.5226 21.7979C75.7074 21.7979 76.6973 22.2658 77.4913 23.2028C78.2822 24.1408 78.6792 25.3741 78.6792 26.9036ZM76.404 26.9852C76.404 26.0074 76.1829 25.2013 75.7409 24.5669C75.258 23.9053 74.6116 23.5744 73.7977 23.5744C73.2457 23.5744 72.746 23.7587 72.2976 24.122C71.8493 24.4884 71.557 24.9668 71.4198 25.5594C71.3517 25.8358 71.3161 26.0619 71.3161 26.2399V27.9149C71.3161 28.6456 71.5403 29.2623 71.9865 29.7658C72.4349 30.2683 73.0173 30.5206 73.7359 30.5206C74.5771 30.5206 75.2318 30.1961 75.7 29.5491C76.1693 28.9011 76.404 28.0468 76.404 26.9852Z" fill="#617288"/>
<path d="M91.6074 28.1428C91.6074 29.3279 91.1957 30.2921 90.3692 31.0365C89.461 31.8499 88.1967 32.2561 86.5719 32.2561C85.0719 32.2561 83.8693 31.9672 82.959 31.3882L83.4765 29.5279C84.457 30.1204 85.5328 30.4178 86.705 30.4178C87.5461 30.4178 88.2008 30.2272 88.6712 29.8482C89.1394 29.4693 89.373 28.9605 89.373 28.3261C89.373 27.7607 89.1803 27.2844 88.7937 26.8981C88.4093 26.5118 87.7672 26.1527 86.8705 25.8208C84.4297 24.9111 83.2104 23.5784 83.2104 21.8258C83.2104 20.6805 83.6378 19.7415 84.4936 19.0107C85.3463 18.2789 86.4839 17.9136 87.9065 17.9136C89.175 17.9136 90.2289 18.1345 91.07 18.5752L90.5117 20.3947C89.726 19.9676 88.8377 19.754 87.8436 19.754C87.058 19.754 86.4441 19.9477 86.0042 20.333C85.6323 20.6774 85.4458 21.0972 85.4458 21.5945C85.4458 22.1451 85.6585 22.6006 86.0859 22.9586C86.4577 23.2894 87.1334 23.6475 88.1139 24.0338C89.3133 24.5164 90.1943 25.0807 90.761 25.7276C91.3256 26.3725 91.6074 27.1797 91.6074 28.1428Z" fill="#617288"/>
<path d="M98.9909 23.6787H96.5292V28.5562C96.5292 29.7968 96.9629 30.4165 97.8324 30.4165C98.2315 30.4165 98.5625 30.382 98.8244 30.3129L98.8862 32.0078C98.4462 32.1722 97.8669 32.2549 97.1494 32.2549C96.2673 32.2549 95.5781 31.9858 95.0805 31.4488C94.585 30.9107 94.3357 30.0082 94.3357 28.7404V23.6766H92.8691V22.0015H94.3357V20.1621L96.5292 19.5005V22.0015H98.9909V23.6787Z" fill="#617288"/>
<path d="M110.098 26.9443C110.098 28.4885 109.656 29.7563 108.774 30.7477C107.849 31.7685 106.621 32.2773 105.091 32.2773C103.616 32.2773 102.441 31.7884 101.566 30.8106C100.69 29.8327 100.252 28.5985 100.252 27.1108C100.252 25.5541 100.702 24.2789 101.606 23.2875C102.508 22.2951 103.726 21.7988 105.256 21.7988C106.731 21.7988 107.918 22.2877 108.813 23.2666C109.67 24.2161 110.098 25.442 110.098 26.9443ZM107.781 27.0166C107.781 26.0901 107.583 25.2955 107.181 24.6328C106.713 23.8309 106.044 23.4309 105.176 23.4309C104.279 23.4309 103.597 23.8319 103.128 24.6328C102.727 25.2965 102.529 26.1037 102.529 27.0585C102.529 27.985 102.727 28.7796 103.128 29.4412C103.611 30.2431 104.286 30.643 105.157 30.643C106.009 30.643 106.679 30.2348 107.161 29.4203C107.573 28.745 107.781 27.942 107.781 27.0166Z" fill="#617288"/>
<path d="M117.357 23.967C117.136 23.9262 116.9 23.9053 116.653 23.9053C115.867 23.9053 115.259 24.2015 114.832 24.7951C114.46 25.3186 114.274 25.9802 114.274 26.779V32.0502H112.041L112.062 25.1678C112.062 24.01 112.034 22.9557 111.979 22.0051H113.924L114.005 23.9272H114.067C114.303 23.2667 114.675 22.7348 115.184 22.336C115.682 21.9769 116.219 21.7979 116.798 21.7979C117.005 21.7979 117.191 21.8125 117.357 21.8387V23.967Z" fill="#617288"/>
<path d="M127.345 26.5516C127.345 26.9515 127.319 27.2886 127.264 27.564H120.564C120.59 28.5564 120.914 29.3154 121.536 29.8389C122.1 30.3069 122.831 30.5414 123.727 30.5414C124.719 30.5414 125.624 30.3833 126.438 30.0661L126.788 31.6155C125.837 32.0301 124.714 32.2363 123.418 32.2363C121.86 32.2363 120.636 31.7778 119.746 30.8617C118.857 29.9457 118.412 28.7156 118.412 27.1724C118.412 25.6576 118.826 24.3961 119.654 23.39C120.522 22.3159 121.694 21.7788 123.169 21.7788C124.618 21.7788 125.714 22.3159 126.459 23.39C127.049 24.2432 127.345 25.2985 127.345 26.5516ZM125.216 25.9727C125.231 25.3111 125.085 24.7394 124.782 24.2568C124.396 23.636 123.802 23.3261 123.002 23.3261C122.272 23.3261 121.678 23.6287 121.225 24.2359C120.853 24.7185 120.632 25.2974 120.564 25.9716H125.216V25.9727Z" fill="#617288"/>
<path d="M50.7642 9.54572C50.7642 10.7779 50.3944 11.7055 49.6559 12.3284C48.9719 12.9031 47.9998 13.191 46.7406 13.191C46.1163 13.191 45.5821 13.1638 45.1348 13.1094V6.37675C45.7182 6.28253 46.3468 6.23438 47.0256 6.23438C48.225 6.23438 49.129 6.49505 49.7387 7.01641C50.4217 7.60582 50.7642 8.44857 50.7642 9.54572ZM49.6067 9.57608C49.6067 8.7773 49.3951 8.16486 48.9719 7.73772C48.5487 7.31164 47.9306 7.09807 47.1167 7.09807C46.771 7.09807 46.4767 7.1211 46.2326 7.16926V12.2876C46.3677 12.3085 46.6149 12.3179 46.9742 12.3179C47.8144 12.3179 48.4628 12.0845 48.9195 11.6175C49.3762 11.1506 49.6067 10.4701 49.6067 9.57608Z" fill="#617288"/>
<path d="M56.9009 10.6224C56.9009 11.3814 56.6841 12.0033 56.2504 12.4912C55.7958 12.9926 55.1934 13.2428 54.4413 13.2428C53.7164 13.2428 53.1392 13.0031 52.7087 12.5215C52.2792 12.041 52.0645 11.4348 52.0645 10.7041C52.0645 9.93985 52.2855 9.31276 52.7296 8.82595C53.1738 8.33914 53.7709 8.09521 54.523 8.09521C55.2479 8.09521 55.8303 8.33495 56.2713 8.81548C56.6904 9.2824 56.9009 9.88542 56.9009 10.6224ZM55.7622 10.658C55.7622 10.2026 55.6638 9.81213 55.4679 9.48655C55.2374 9.09291 54.9096 8.89609 54.4832 8.89609C54.0422 8.89609 53.707 9.09291 53.4765 9.48655C53.2796 9.81213 53.1822 10.2089 53.1822 10.6779C53.1822 11.1333 53.2806 11.5238 53.4765 11.8494C53.7143 12.243 54.0453 12.4399 54.4727 12.4399C54.8917 12.4399 55.2207 12.2399 55.4574 11.8389C55.6606 11.5071 55.7622 11.1134 55.7622 10.658Z" fill="#617288"/>
<path d="M65.1312 8.19629L63.5861 13.1314H62.5805L61.9404 10.9884C61.7781 10.4534 61.6461 9.92158 61.5434 9.39394H61.5235C61.4282 9.93624 61.2962 10.467 61.1265 10.9884L60.4466 13.1314H59.4295L57.9766 8.19629H59.1048L59.6631 10.5424C59.7982 11.0973 59.9093 11.6259 59.9983 12.1264H60.0182C60.0999 11.7139 60.235 11.1883 60.4257 10.5529L61.1265 8.19734H62.0211L62.6926 10.5026C62.8549 11.0648 62.9869 11.606 63.0885 12.1274H63.1189C63.1933 11.6197 63.3054 11.0784 63.4541 10.5026L64.0533 8.19734H65.1312V8.19629Z" fill="#617288"/>
<path d="M70.8225 13.131H69.7247V10.3044C69.7247 9.43337 69.3937 8.99785 68.7296 8.99785C68.4038 8.99785 68.1409 9.1172 67.9366 9.35694C67.7344 9.59668 67.6318 9.87935 67.6318 10.2028V13.13H66.5339V9.6061C66.5339 9.17269 66.5203 8.70263 66.4941 8.19383H67.4589L67.5102 8.9654H67.5406C67.6684 8.72566 67.8591 8.5278 68.1094 8.36971C68.4069 8.18546 68.74 8.09229 69.1046 8.09229C69.5655 8.09229 69.9489 8.24095 70.2537 8.53931C70.6329 8.90468 70.8225 9.45012 70.8225 10.1746V13.131Z" fill="#617288"/>
<path d="M73.8507 13.1312H72.7539V5.93164H73.8507V13.1312Z" fill="#617288"/>
<path d="M80.313 10.6224C80.313 11.3814 80.0962 12.0033 79.6625 12.4912C79.2079 12.9926 78.6045 13.2428 77.8534 13.2428C77.1275 13.2428 76.5503 13.0031 76.1208 12.5215C75.6913 12.041 75.4766 11.4348 75.4766 10.7041C75.4766 9.93985 75.6976 9.31276 76.1417 8.82595C76.5859 8.33914 77.183 8.09521 77.9341 8.09521C78.66 8.09521 79.2414 8.33495 79.6835 8.81548C80.1025 9.2824 80.313 9.88542 80.313 10.6224ZM79.1733 10.658C79.1733 10.2026 79.0748 9.81213 78.879 9.48655C78.6495 9.09291 78.3206 8.89609 77.8953 8.89609C77.4533 8.89609 77.118 9.09291 76.8886 9.48655C76.6917 9.81213 76.5943 10.2089 76.5943 10.6779C76.5943 11.1333 76.6927 11.5238 76.8886 11.8494C77.1264 12.243 77.4575 12.4399 77.8848 12.4399C78.3039 12.4399 78.6317 12.2399 78.8685 11.8389C79.0727 11.5071 79.1733 11.1134 79.1733 10.658Z" fill="#617288"/>
<path d="M85.6262 13.1308H84.6405L84.5588 12.5623H84.5284C84.1911 13.0157 83.7103 13.2428 83.086 13.2428C82.6198 13.2428 82.2427 13.0931 81.9588 12.7958C81.7011 12.5257 81.5723 12.1896 81.5723 11.7908C81.5723 11.1878 81.8237 10.7282 82.3296 10.4099C82.8345 10.0917 83.5448 9.93567 84.4593 9.94299V9.85087C84.4593 9.20074 84.1178 8.8762 83.4337 8.8762C82.9466 8.8762 82.5171 8.99869 82.1463 9.24157L81.9232 8.5213C82.382 8.23759 82.9487 8.09521 83.6171 8.09521C84.9076 8.09521 85.555 8.7757 85.555 10.1367V11.9541C85.555 12.4472 85.5791 12.8398 85.6262 13.1308ZM84.4865 11.4348V10.6737C83.2756 10.6528 82.6701 10.9847 82.6701 11.6683C82.6701 11.9258 82.7392 12.1185 82.8806 12.2472C83.0221 12.376 83.2022 12.4399 83.417 12.4399C83.6579 12.4399 83.8831 12.3634 84.0884 12.2116C84.2948 12.0588 84.4216 11.8651 84.4687 11.6275C84.4802 11.5741 84.4865 11.5092 84.4865 11.4348Z" fill="#617288"/>
<path d="M91.8643 13.1312H90.8901L90.8388 12.3387H90.8084C90.4973 12.9417 89.9672 13.2432 89.2224 13.2432C88.6274 13.2432 88.1319 13.0097 87.7391 12.5428C87.3463 12.0759 87.1504 11.4697 87.1504 10.7254C87.1504 9.92662 87.363 9.27963 87.7904 8.78549C88.2042 8.32486 88.7112 8.09454 89.3146 8.09454C89.9777 8.09454 90.4417 8.31753 90.7057 8.76455H90.7267V5.93164H91.8255V11.8016C91.8255 12.2821 91.8381 12.725 91.8643 13.1312ZM90.7267 11.0499V10.2271C90.7267 10.0847 90.7162 9.96954 90.6963 9.8816C90.6345 9.61778 90.5014 9.39584 90.2993 9.21682C90.095 9.0378 89.8488 8.94776 89.5649 8.94776C89.1554 8.94776 88.8348 9.11003 88.5991 9.43562C88.3655 9.7612 88.2472 10.1768 88.2472 10.6846C88.2472 11.1724 88.3592 11.5682 88.5845 11.8728C88.8222 12.1973 89.1428 12.3596 89.544 12.3596C89.9044 12.3596 90.1924 12.2246 90.4114 11.9534C90.623 11.7032 90.7267 11.4017 90.7267 11.0499Z" fill="#617288"/>
<path d="M101.252 10.6224C101.252 11.3814 101.036 12.0033 100.602 12.4912C100.147 12.9926 99.5461 13.2428 98.7929 13.2428C98.069 13.2428 97.4918 13.0031 97.0603 12.5215C96.6308 12.041 96.416 11.4348 96.416 10.7041C96.416 9.93985 96.637 9.31276 97.0812 8.82595C97.5254 8.33914 98.1224 8.09521 98.8756 8.09521C99.5995 8.09521 100.183 8.33495 100.623 8.81548C101.042 9.2824 101.252 9.88542 101.252 10.6224ZM100.115 10.658C100.115 10.2026 100.016 9.81213 99.8205 9.48655C99.589 9.09291 99.2622 8.89609 98.8348 8.89609C98.3948 8.89609 98.0596 9.09291 97.8281 9.48655C97.6312 9.81213 97.5337 10.2089 97.5337 10.6779C97.5337 11.1333 97.6322 11.5238 97.8281 11.8494C98.0659 12.243 98.3969 12.4399 98.8243 12.4399C99.2433 12.4399 99.5733 12.2399 99.81 11.8389C100.012 11.5071 100.115 11.1134 100.115 10.658Z" fill="#617288"/>
<path d="M107.155 13.131H106.059V10.3044C106.059 9.43337 105.728 8.99785 105.063 8.99785C104.737 8.99785 104.474 9.1172 104.271 9.35694C104.067 9.59668 103.966 9.87935 103.966 10.2028V13.13H102.867V9.6061C102.867 9.17269 102.854 8.70263 102.828 8.19383H103.792L103.843 8.9654H103.874C104.002 8.72566 104.193 8.5278 104.442 8.36971C104.741 8.18546 105.073 8.09229 105.439 8.09229C105.898 8.09229 106.282 8.24095 106.587 8.53931C106.967 8.90468 107.155 9.45012 107.155 10.1746V13.131Z" fill="#617288"/>
<path d="M114.545 9.01816H113.336V11.4156C113.336 12.0249 113.55 12.3295 113.976 12.3295C114.173 12.3295 114.336 12.3128 114.465 12.2782L114.493 13.1105C114.276 13.1922 113.991 13.233 113.641 13.233C113.207 13.233 112.87 13.1011 112.625 12.8373C112.38 12.5734 112.259 12.1296 112.259 11.5066V9.01816H111.537V8.19635H112.259V7.29182L113.335 6.96729V8.1953H114.544V9.01816H114.545Z" fill="#617288"/>
<path d="M120.357 13.1312H119.258V10.3255C119.258 9.44085 118.927 8.99801 118.264 8.99801C117.755 8.99801 117.407 9.2545 117.216 9.76749C117.184 9.87532 117.165 10.0072 117.165 10.1622V13.1301H116.068V5.93164H117.165V8.90589H117.186C117.532 8.36464 118.027 8.09454 118.669 8.09454C119.124 8.09454 119.5 8.2432 119.799 8.54156C120.17 8.91321 120.357 9.46598 120.357 10.1967V13.1312Z" fill="#617288"/>
<path d="M126.351 10.4304C126.351 10.6273 126.336 10.7927 126.31 10.9277H123.018C123.033 11.4156 123.19 11.7872 123.495 12.0448C123.773 12.2751 124.132 12.3902 124.572 12.3902C125.06 12.3902 125.504 12.3128 125.904 12.1568L126.076 12.9189C125.607 13.122 125.056 13.2236 124.418 13.2236C123.654 13.2236 123.051 12.9985 122.616 12.5483C122.178 12.0982 121.961 11.4941 121.961 10.7361C121.961 9.99179 122.163 9.37202 122.571 8.87788C122.996 8.35024 123.571 8.08643 124.297 8.08643C125.007 8.08643 125.547 8.35024 125.911 8.87788C126.206 9.29664 126.351 9.81486 126.351 10.4304ZM125.304 10.1467C125.312 9.82114 125.24 9.54057 125.091 9.30397C124.9 8.99932 124.61 8.84648 124.217 8.84648C123.859 8.84648 123.567 8.99514 123.344 9.2935C123.161 9.53115 123.054 9.81486 123.018 10.1467H125.304Z" fill="#617288"/>
</svg>
