<svg width="280" height="80" viewBox="0 0 280 80" fill="none" xmlns="http://www.w3.org/2000/svg">
<path d="M280 71.9807C280 76.4112 276.395 80 271.937 80H8.07349C3.61719 80 0 76.4112 0 71.9807V8.02973C0 3.60134 3.61719 0 8.07349 0H271.935C276.395 0 279.998 3.60134 279.998 8.02973L280 71.9807Z" fill="#617288"/>
<path d="M61.6003 39.5606C61.5393 32.8123 67.1495 29.5292 67.406 29.3764C64.2288 24.7637 59.3041 24.1335 57.5735 24.0832C53.4373 23.6498 49.4253 26.5477 47.3183 26.5477C45.1693 26.5477 41.9247 24.1251 38.4278 24.1963C33.9278 24.2654 29.7181 26.8596 27.4093 30.8881C22.6444 39.1021 26.1981 51.1729 30.7632 57.8123C33.0468 61.064 35.7152 64.6946 39.2079 64.5669C42.6249 64.4266 43.9013 62.3977 48.0248 62.3977C52.1105 62.3977 53.3091 64.5669 56.8712 64.4853C60.5384 64.4266 62.8472 61.2189 65.0509 57.9379C67.6899 54.211 68.7497 50.5405 68.7918 50.3521C68.7056 50.3228 61.6697 47.649 61.6003 39.5606Z" fill="white"/>
<path d="M54.8719 19.7154C56.7097 17.4268 57.9671 14.3134 57.6181 11.1538C54.9581 11.2711 51.6315 12.9859 49.7159 15.2242C48.021 17.1965 46.5071 20.4294 46.8982 23.4696C49.8862 23.6915 52.9541 21.9683 54.8719 19.7154Z" fill="white"/>
<path d="M111.05 64.0997H106.275L103.659 55.915H94.5668L92.075 64.0997H87.4258L96.434 36.2354H101.998L111.05 64.0997ZM102.871 52.4812L100.505 45.2052C100.255 44.4619 99.7859 42.7115 99.094 39.956H99.0099C98.7345 41.1411 98.2908 42.8916 97.681 45.2052L95.3574 52.4812H102.871Z" fill="white"/>
<path d="M134.217 53.8067C134.217 57.2238 133.29 59.9248 131.435 61.9076C129.774 63.6727 127.711 64.5542 125.249 64.5542C122.591 64.5542 120.681 63.6036 119.518 61.7024H119.434V72.2866H114.951V50.622C114.951 48.4738 114.895 46.269 114.785 44.0077H118.728L118.978 47.1924H119.062C120.557 44.7929 122.826 43.5952 125.871 43.5952C128.251 43.5952 130.238 44.5311 131.828 46.4051C133.422 48.2811 134.217 50.7476 134.217 53.8067ZM129.65 53.97C129.65 52.0144 129.208 50.4022 128.321 49.1333C127.351 47.81 126.05 47.1484 124.418 47.1484C123.312 47.1484 122.307 47.5169 121.409 48.2435C120.509 48.9763 119.92 49.9332 119.645 51.1182C119.506 51.671 119.436 52.1233 119.436 52.4792V55.8293C119.436 57.2908 119.886 58.524 120.786 59.5311C121.686 60.5383 122.856 61.0408 124.294 61.0408C125.982 61.0408 127.297 60.3917 128.237 59.0977C129.179 57.8017 129.65 56.0931 129.65 53.97Z" fill="white"/>
<path d="M157.426 53.8067C157.426 57.2238 156.498 59.9248 154.642 61.9076C152.983 63.6727 150.92 64.5542 148.457 64.5542C145.799 64.5542 143.89 63.6036 142.729 61.7024H142.645V72.2866H138.162V50.622C138.162 48.4738 138.105 46.269 137.996 44.0077H141.939L142.189 47.1924H142.273C143.766 44.7929 146.035 43.5952 149.082 43.5952C151.46 43.5952 153.447 44.5311 155.041 46.4051C156.629 48.2811 157.426 50.7476 157.426 53.8067ZM152.858 53.97C152.858 52.0144 152.415 50.4022 151.527 49.1333C150.558 47.81 149.261 47.1484 147.627 47.1484C146.519 47.1484 145.516 47.5169 144.616 48.2435C143.716 48.9763 143.129 49.9332 142.853 51.1182C142.717 51.671 142.645 52.1233 142.645 52.4792V55.8293C142.645 57.2908 143.095 58.524 143.991 59.5311C144.891 60.5362 146.06 61.0408 147.503 61.0408C149.191 61.0408 150.505 60.3917 151.445 59.0977C152.387 57.8017 152.858 56.0931 152.858 53.97Z" fill="white"/>
<path d="M183.372 56.2857C183.372 58.6559 182.546 60.5843 180.887 62.073C179.064 63.6998 176.526 64.5122 173.264 64.5122C170.253 64.5122 167.839 63.9343 166.012 62.7765L167.05 59.0558C169.019 60.2409 171.178 60.8355 173.531 60.8355C175.22 60.8355 176.534 60.4544 177.478 59.6965C178.418 58.9385 178.887 57.921 178.887 56.6521C178.887 55.5215 178.5 54.5688 177.724 53.7962C176.952 53.0235 175.663 52.3054 173.863 51.6416C168.964 49.8221 166.516 47.1567 166.516 43.6517C166.516 41.3611 167.374 39.4829 169.092 38.0215C170.804 36.5579 173.088 35.8271 175.943 35.8271C178.49 35.8271 180.605 36.2689 182.293 37.1504L181.173 40.7895C179.596 39.9352 177.812 39.5081 175.817 39.5081C174.24 39.5081 173.008 39.8954 172.124 40.6659C171.378 41.3548 171.004 42.1944 171.004 43.189C171.004 44.2903 171.431 45.2011 172.288 45.9172C173.035 46.5788 174.391 47.2949 176.359 48.0675C178.767 49.0328 180.536 50.1613 181.673 51.4553C182.807 52.7451 183.372 54.3594 183.372 56.2857Z" fill="white"/>
<path d="M198.195 47.3578H193.253V57.1129C193.253 59.594 194.124 60.8335 195.869 60.8335C196.67 60.8335 197.335 60.7644 197.86 60.6263L197.985 64.0161C197.101 64.3448 195.939 64.5103 194.498 64.5103C192.728 64.5103 191.344 63.9722 190.345 62.898C189.351 61.8218 188.85 60.017 188.85 57.4814V47.3536H185.906V44.0036H188.85V40.3247L193.253 39.0015V44.0036H198.195V47.3578Z" fill="white"/>
<path d="M220.49 53.8882C220.49 56.9766 219.603 59.5122 217.833 61.495C215.976 63.5364 213.511 64.554 210.439 64.554C207.479 64.554 205.121 63.5762 203.363 61.6206C201.606 59.665 200.727 57.1964 200.727 54.2211C200.727 51.1076 201.631 48.5574 203.445 46.5746C205.256 44.5896 207.699 43.5972 210.771 43.5972C213.732 43.5972 216.115 44.575 217.912 46.5327C219.633 48.4318 220.49 50.8836 220.49 53.8882ZM215.839 54.0327C215.839 52.1797 215.442 50.5905 214.636 49.2651C213.696 47.6612 212.353 46.8614 210.612 46.8614C208.81 46.8614 207.441 47.6633 206.501 49.2651C205.695 50.5926 205.298 52.2069 205.298 54.1164C205.298 55.9694 205.695 57.5586 206.501 58.8819C207.47 60.4858 208.824 61.2856 210.572 61.2856C212.283 61.2856 213.627 60.469 214.596 58.84C215.423 57.4895 215.839 55.8836 215.839 54.0327Z" fill="white"/>
<path d="M235.063 47.9336C234.62 47.8519 234.146 47.81 233.65 47.81C232.073 47.81 230.853 48.4026 229.996 49.5898C229.249 50.6367 228.875 51.96 228.875 53.5575V64.0998H224.394L224.436 50.3352C224.436 48.0194 224.379 45.911 224.268 44.0098H228.172L228.336 47.854H228.461C228.934 46.5328 229.68 45.4692 230.702 44.6714C231.701 43.9533 232.78 43.5952 233.942 43.5952C234.357 43.5952 234.731 43.6245 235.063 43.6769V47.9336Z" fill="white"/>
<path d="M255.114 53.1033C255.114 53.9031 255.061 54.5773 254.95 55.128H241.501C241.553 57.1129 242.203 58.6309 243.452 59.6778C244.585 60.6137 246.051 61.0827 247.851 61.0827C249.842 61.0827 251.659 60.7666 253.293 60.1322L253.995 63.231C252.086 64.0601 249.832 64.4726 247.231 64.4726C244.102 64.4726 241.646 63.5555 239.858 61.7234C238.075 59.8914 237.182 57.4311 237.182 54.3449C237.182 51.3152 238.012 48.7921 239.676 46.78C241.417 44.6317 243.77 43.5576 246.73 43.5576C249.638 43.5576 251.84 44.6317 253.335 46.78C254.519 48.4864 255.114 50.597 255.114 53.1033ZM250.839 51.9454C250.869 50.6221 250.576 49.4789 249.969 48.5136C249.193 47.272 248 46.6523 246.396 46.6523C244.93 46.6523 243.738 47.2574 242.828 48.4718C242.081 49.437 241.637 50.5949 241.501 51.9433H250.839V51.9454Z" fill="white"/>
<path d="M101.388 19.0934C101.388 21.5578 100.646 23.4129 99.1634 24.6587C97.7903 25.8082 95.839 26.384 93.3114 26.384C92.0582 26.384 90.9858 26.3296 90.0879 26.2207V12.7555C91.2591 12.567 92.5208 12.4707 93.8834 12.4707C96.2911 12.4707 98.1058 12.9921 99.3296 14.0348C100.701 15.2136 101.388 16.8991 101.388 19.0934ZM99.0646 19.1541C99.0646 17.5565 98.6399 16.3317 97.7903 15.4774C96.9408 14.6252 95.7002 14.1981 94.0663 14.1981C93.3724 14.1981 92.7815 14.2442 92.2916 14.3405V24.5771C92.5629 24.6189 93.0591 24.6378 93.7804 24.6378C95.4668 24.6378 96.7684 24.1709 97.6852 23.237C98.602 22.3032 99.0646 20.9422 99.0646 19.1541Z" fill="white"/>
<path d="M113.708 21.2454C113.708 22.7634 113.273 24.0071 112.403 24.9828C111.49 25.9857 110.281 26.4861 108.771 26.4861C107.316 26.4861 106.157 26.0067 105.293 25.0435C104.431 24.0825 104 22.8701 104 21.4087C104 19.8802 104.444 18.626 105.335 17.6524C106.227 16.6788 107.425 16.1909 108.935 16.1909C110.39 16.1909 111.559 16.6704 112.445 17.6315C113.286 18.5653 113.708 19.7713 113.708 21.2454ZM111.423 21.3165C111.423 20.4057 111.225 19.6248 110.832 18.9736C110.369 18.1863 109.711 17.7927 108.855 17.7927C107.97 17.7927 107.297 18.1863 106.835 18.9736C106.439 19.6248 106.244 20.4183 106.244 21.3563C106.244 22.2671 106.441 23.0481 106.835 23.6993C107.312 24.4866 107.976 24.8802 108.834 24.8802C109.675 24.8802 110.336 24.4803 110.811 23.6784C111.219 23.0146 111.423 22.2273 111.423 21.3165Z" fill="white"/>
<path d="M130.227 16.3921L127.126 26.2623H125.107L123.822 21.9763C123.496 20.9063 123.231 19.8427 123.025 18.7874H122.985C122.794 19.872 122.529 20.9335 122.188 21.9763L120.824 26.2623H118.782L115.865 16.3921H118.13L119.251 21.0843C119.522 22.194 119.745 23.2514 119.924 24.2522H119.964C120.128 23.4273 120.399 22.3762 120.782 21.1052L122.188 16.3942H123.984L125.332 21.0047C125.658 22.1291 125.923 23.2116 126.127 24.2543H126.188C126.337 23.2388 126.562 22.1563 126.861 21.0047L128.063 16.3942H130.227V16.3921Z" fill="white"/>
<path d="M141.652 26.2625H139.448V20.6093C139.448 18.8672 138.783 17.9962 137.45 17.9962C136.796 17.9962 136.268 18.2349 135.858 18.7144C135.453 19.1939 135.246 19.7592 135.246 20.4062V26.2604H133.043V19.2127C133.043 18.3459 133.015 17.4057 132.963 16.3882H134.9L135.003 17.9313H135.064C135.32 17.4518 135.703 17.0561 136.205 16.7399C136.803 16.3714 137.471 16.1851 138.203 16.1851C139.128 16.1851 139.898 16.4824 140.51 17.0791C141.271 17.8098 141.652 18.9007 141.652 20.3496V26.2625Z" fill="white"/>
<path d="M147.729 26.2624H145.527V11.8633H147.729V26.2624Z" fill="white"/>
<path d="M160.703 21.2454C160.703 22.7634 160.267 24.0071 159.397 24.9828C158.484 25.9857 157.273 26.4861 155.765 26.4861C154.308 26.4861 153.149 26.0067 152.287 25.0435C151.425 24.0825 150.994 22.8701 150.994 21.4087C150.994 19.8802 151.438 18.626 152.329 17.6524C153.221 16.6788 154.42 16.1909 155.927 16.1909C157.384 16.1909 158.551 16.6704 159.439 17.6315C160.28 18.5653 160.703 19.7713 160.703 21.2454ZM158.415 21.3165C158.415 20.4057 158.217 19.6248 157.824 18.9736C157.363 18.1863 156.703 17.7927 155.849 17.7927C154.962 17.7927 154.289 18.1863 153.829 18.9736C153.433 19.6248 153.238 20.4183 153.238 21.3563C153.238 22.2671 153.435 23.0481 153.829 23.6993C154.306 24.4866 154.97 24.8802 155.828 24.8802C156.67 24.8802 157.328 24.4803 157.803 23.6784C158.213 23.0146 158.415 22.2273 158.415 21.3165Z" fill="white"/>
<path d="M171.368 26.2621H169.389L169.225 25.1252H169.164C168.487 26.0318 167.522 26.4861 166.269 26.4861C165.333 26.4861 164.576 26.1867 164.006 25.5921C163.489 25.0519 163.23 24.3798 163.23 23.582C163.23 22.376 163.735 21.4568 164.751 20.8203C165.764 20.1838 167.19 19.8718 169.026 19.8865V19.7022C169.026 18.402 168.34 17.7529 166.967 17.7529C165.989 17.7529 165.127 17.9979 164.383 18.4836L163.935 17.0431C164.856 16.4757 165.994 16.1909 167.335 16.1909C169.926 16.1909 171.225 17.5519 171.225 20.2738V23.9087C171.225 24.8949 171.274 25.68 171.368 26.2621ZM169.08 22.8701V21.348C166.65 21.3061 165.434 21.9698 165.434 23.3371C165.434 23.8521 165.573 24.2374 165.857 24.4949C166.141 24.7525 166.502 24.8802 166.933 24.8802C167.417 24.8802 167.869 24.7274 168.281 24.4237C168.696 24.1181 168.95 23.7307 169.045 23.2554C169.068 23.1486 169.08 23.0188 169.08 22.8701Z" fill="white"/>
<path d="M183.89 26.2624H181.935L181.832 24.6773H181.771C181.146 25.8834 180.082 26.4864 178.587 26.4864C177.393 26.4864 176.398 26.0195 175.609 25.0856C174.821 24.1518 174.428 22.9395 174.428 21.4508C174.428 19.8532 174.855 18.5593 175.713 17.571C176.543 16.6497 177.561 16.1891 178.772 16.1891C180.103 16.1891 181.035 16.6351 181.565 17.5291H181.607V11.8633H183.812V23.6032C183.812 24.5643 183.838 25.45 183.89 26.2624ZM181.607 22.0999V20.4542C181.607 20.1694 181.586 19.9391 181.546 19.7632C181.422 19.2356 181.154 18.7917 180.749 18.4336C180.339 18.0756 179.844 17.8955 179.275 17.8955C178.452 17.8955 177.809 18.2201 177.336 18.8712C176.867 19.5224 176.629 20.3536 176.629 21.3691C176.629 22.3449 176.854 23.1363 177.306 23.7456C177.784 24.3947 178.427 24.7192 179.233 24.7192C179.956 24.7192 180.534 24.4491 180.974 23.9068C181.398 23.4064 181.607 22.8034 181.607 22.0999Z" fill="white"/>
<path d="M202.738 21.2454C202.738 22.7634 202.303 24.0071 201.432 24.9828C200.519 25.9857 199.312 26.4861 197.8 26.4861C196.347 26.4861 195.189 26.0067 194.323 25.0435C193.46 24.0825 193.029 22.8701 193.029 21.4087C193.029 19.8802 193.473 18.626 194.365 17.6524C195.256 16.6788 196.455 16.1909 197.967 16.1909C199.42 16.1909 200.591 16.6704 201.474 17.6315C202.315 18.5653 202.738 19.7713 202.738 21.2454ZM200.454 21.3165C200.454 20.4057 200.257 19.6248 199.863 18.9736C199.399 18.1863 198.743 17.7927 197.885 17.7927C197.001 17.7927 196.329 18.1863 195.864 18.9736C195.469 19.6248 195.273 20.4183 195.273 21.3563C195.273 22.2671 195.471 23.0481 195.864 23.6993C196.341 24.4866 197.006 24.8802 197.864 24.8802C198.705 24.8802 199.367 24.4803 199.842 23.6784C200.248 23.0146 200.454 22.2273 200.454 21.3165Z" fill="white"/>
<path d="M214.587 26.2625H212.385V20.6093C212.385 18.8672 211.721 17.9962 210.386 17.9962C209.732 17.9962 209.204 18.2349 208.796 18.7144C208.388 19.1939 208.184 19.7592 208.184 20.4062V26.2604H205.978V19.2127C205.978 18.3459 205.953 17.4057 205.9 16.3882H207.835L207.938 17.9313H207.999C208.258 17.4518 208.64 17.0561 209.141 16.7399C209.74 16.3714 210.407 16.1851 211.141 16.1851C212.064 16.1851 212.833 16.4824 213.445 17.0791C214.208 17.8098 214.587 18.9007 214.587 20.3496V26.2625Z" fill="white"/>
<path d="M229.418 18.0358H226.991V22.8306C226.991 24.0492 227.422 24.6585 228.276 24.6585C228.671 24.6585 228.999 24.625 229.258 24.5559L229.315 26.2205C228.88 26.3838 228.308 26.4655 227.603 26.4655C226.733 26.4655 226.056 26.2017 225.566 25.674C225.074 25.1464 224.83 24.2586 224.83 23.0128V18.0358H223.381V16.3922H224.83V14.5832L226.989 13.9341V16.3901H229.416V18.0358H229.418Z" fill="white"/>
<path d="M241.083 26.2624H238.878V20.651C238.878 18.8817 238.213 17.996 236.882 17.996C235.86 17.996 235.162 18.509 234.779 19.535C234.714 19.7506 234.676 20.0145 234.676 20.3243V26.2603H232.475V11.8633H234.676V17.8118H234.718C235.412 16.7293 236.407 16.1891 237.696 16.1891C238.608 16.1891 239.363 16.4864 239.963 17.0831C240.709 17.8264 241.083 18.932 241.083 20.3934V26.2624Z" fill="white"/>
<path d="M253.117 20.8604C253.117 21.254 253.088 21.5848 253.035 21.8549H246.426C246.456 22.8307 246.771 23.574 247.383 24.089C247.942 24.5497 248.664 24.78 249.547 24.78C250.525 24.78 251.416 24.625 252.22 24.3131L252.564 25.8374C251.624 26.2436 250.518 26.4466 249.238 26.4466C247.703 26.4466 246.494 25.9965 245.619 25.0961C244.74 24.1958 244.305 22.9877 244.305 21.4718C244.305 19.9831 244.711 18.7436 245.529 17.7553C246.382 16.7 247.537 16.1724 248.994 16.1724C250.42 16.1724 251.502 16.7 252.234 17.7553C252.825 18.5928 253.117 19.6292 253.117 20.8604ZM251.015 20.293C251.031 19.6418 250.886 19.0807 250.588 18.6075C250.205 17.9982 249.623 17.6925 248.834 17.6925C248.115 17.6925 247.528 17.9898 247.08 18.5865C246.714 19.0618 246.498 19.6292 246.426 20.293H251.015Z" fill="white"/>
</svg>
