<svg width="22" height="20" viewBox="0 0 22 20" fill="none" xmlns="http://www.w3.org/2000/svg">
<path d="M20.7634 8.27472L20.7977 8.28223H6.0763L10.7042 3.64417C10.9308 3.41773 11.0551 3.11098 11.0551 2.78903C11.0551 2.46708 10.9308 2.16248 10.7042 1.9355L9.98407 1.21505C9.75763 0.988607 9.45589 0.863403 9.13412 0.863403C8.81217 0.863403 8.51025 0.987712 8.28381 1.21415L0.350753 9.14649C0.123419 9.37383 -0.000889517 9.67664 4.79195e-06 9.99877C-0.000889517 10.3227 0.123419 10.6257 0.350753 10.8527L8.28381 18.7857C8.51025 19.012 8.81199 19.1365 9.13412 19.1365C9.45589 19.1365 9.75763 19.0118 9.98407 18.7857L10.7042 18.0653C10.9308 17.8392 11.0551 17.5373 11.0551 17.2153C11.0551 16.8935 10.9308 16.6075 10.7042 16.3813L6.02407 11.7173H20.7798C21.4429 11.7173 22 11.1458 22 10.4831V9.46415C22 8.80147 21.4264 8.27472 20.7634 8.27472Z" fill="#617288"/>
</svg>
