<svg width="32" height="32" viewBox="0 0 32 32" fill="none" xmlns="http://www.w3.org/2000/svg">
<path fill-rule="evenodd" clip-rule="evenodd" d="M32 16C32 24.8366 24.8366 32 16 32C7.16344 32 0 24.8366 0 16C0 7.16344 7.16344 0 16 0C24.8366 0 32 7.16344 32 16ZM18.5615 20.5875L17.013 22.136V16C17.013 15.6272 16.7104 15.3247 16.3377 15.3247C15.9649 15.3247 15.6623 15.6272 15.6623 16V22.136L14.1138 20.5875C13.8501 20.3238 13.4226 20.3238 13.1589 20.5875C12.8952 20.8512 12.8952 21.2787 13.1589 21.5424L15.8599 24.2433C15.8913 24.2751 15.9261 24.3031 15.9635 24.3281C15.9733 24.3347 15.9836 24.34 15.994 24.3452C16.0006 24.3485 16.0071 24.3518 16.0135 24.3555L16.0291 24.3643C16.0456 24.3737 16.062 24.383 16.0797 24.3902C16.0952 24.3967 16.1113 24.4011 16.1274 24.4056C16.134 24.4074 16.1406 24.4092 16.1472 24.4112C16.1538 24.4131 16.1603 24.4153 16.1668 24.4174L16.1669 24.4175C16.1796 24.4217 16.1922 24.4259 16.2056 24.4284C16.2492 24.4368 16.2934 24.4416 16.3377 24.4416C16.3819 24.4416 16.4261 24.4368 16.47 24.4281C16.4834 24.4254 16.4961 24.4212 16.5087 24.4171C16.5153 24.4149 16.5218 24.4128 16.5284 24.4108L16.5483 24.4052C16.5644 24.4008 16.5804 24.3964 16.596 24.3899C16.6137 24.3827 16.6301 24.3734 16.6465 24.3639L16.6622 24.3551C16.6675 24.3523 16.6728 24.3496 16.6781 24.3469C16.6897 24.341 16.7012 24.3352 16.7121 24.3278C16.7493 24.3028 16.7841 24.2748 16.8158 24.243L19.5168 21.5421C19.7805 21.2783 19.7805 20.8509 19.5168 20.5871C19.253 20.3234 18.8252 20.3238 18.5615 20.5875ZM21.1159 12.957C21.8679 12.8432 22.6513 12.9499 22.6975 12.9563C24.2693 13.2555 25.4545 14.7037 25.4545 16.3282C25.4545 18.1951 23.9354 19.7143 22.0685 19.7143H18.7584C18.7417 19.7143 18.7255 19.7131 18.7093 19.7119C18.7062 19.7117 18.7031 19.7115 18.6999 19.7112L18.6084 19.7075L18.5416 19.7112C18.5382 19.7115 18.5348 19.7117 18.5315 19.712C18.5153 19.7131 18.4993 19.7143 18.4828 19.7143H17.6883V16C17.6883 15.2541 17.0836 14.6494 16.3377 14.6494C15.5918 14.6494 14.987 15.2541 14.987 16V19.7143H10.2074C8.18818 19.7143 6.54545 18.0716 6.54545 16.052C6.54545 14.6494 7.45883 13.1934 8.71764 12.5899L8.90909 12.4984V12.2857C8.90909 12.2479 8.91119 12.2095 8.91331 12.1709C8.9136 12.1657 8.91388 12.1605 8.91416 12.1554L8.91719 12.1014L8.91314 12.0304C8.91112 12.0031 8.90909 11.9757 8.90909 11.9481C8.90909 10.645 9.96969 9.58442 11.2727 9.58442C11.3771 9.58442 11.4801 9.59353 11.582 9.6067C11.6084 9.61042 11.6344 9.61447 11.6607 9.61886C11.7509 9.63405 11.8397 9.6533 11.9271 9.67862C11.933 9.68031 11.939 9.68175 11.945 9.68318C11.951 9.68462 11.957 9.68605 11.9629 9.68774C12.0591 9.71712 12.153 9.75426 12.2449 9.79613C12.2658 9.80557 12.2865 9.81579 12.3069 9.82588L12.3158 9.83023C12.3968 9.87041 12.4762 9.91431 12.5528 9.96395C13.2038 10.3857 13.6364 11.1167 13.6364 11.9481C13.6364 12.1348 13.7873 12.2857 13.974 12.2857C14.1608 12.2857 14.3117 12.1348 14.3117 11.9481C14.3117 11.0181 13.891 10.1858 13.2312 9.62797C14.1992 8.36174 15.7933 7.55844 17.3793 7.55844C19.9945 7.55844 22.1664 9.63 22.393 12.2476C22.0482 12.2232 21.5312 12.2108 21.0143 12.2894C20.8299 12.3175 20.7033 12.4897 20.7313 12.674C20.7566 12.8415 20.9005 12.961 21.0646 12.961C21.0815 12.961 21.0987 12.9597 21.1159 12.957Z" fill="white"/>
</svg>
