<svg width="137" height="40" viewBox="0 0 137 40" fill="none" xmlns="http://www.w3.org/2000/svg">
<path d="M131.926 40H5.07407C2.23259 40 0 37.8 0 35V5C0 2.2 2.23259 0 5.07407 0H131.926C134.767 0 137 2.2 137 5V35C137 37.8 134.767 40 131.926 40Z" fill="white"/>
<path d="M131.309 0.8C133.626 0.8 135.54 2.7 135.54 5V35C135.54 37.3 133.626 39.2 131.309 39.2H5.38274C3.0657 39.2 1.15163 37.3 1.15163 35V5C1.15163 2.7 3.0657 0.8 5.38274 0.8H131.309ZM131.309 0H5.38274C2.562 0 0.345703 2.3 0.345703 5V35C0.345703 37.8 2.562 40 5.38274 40H131.309C134.129 40 136.346 37.8 136.346 35V5C136.346 2.3 134.129 0 131.309 0Z" fill="white"/>
<path d="M48.0952 10.1994C48.0952 10.9994 47.8937 11.6994 47.39 12.1994C46.7856 12.7994 46.0804 13.0994 45.1737 13.0994C44.2671 13.0994 43.5619 12.7994 42.9574 12.1994C42.353 11.5994 42.0508 10.8994 42.0508 9.99941C42.0508 9.09941 42.353 8.39941 42.9574 7.79941C43.5619 7.19941 44.2671 6.89941 45.1737 6.89941C45.5767 6.89941 45.9797 6.99941 46.3826 7.19941C46.7856 7.39941 47.0878 7.59941 47.2893 7.89941L46.7856 8.39941C46.3826 7.89941 45.8789 7.69941 45.1737 7.69941C44.5693 7.69941 43.9649 7.89941 43.5619 8.39941C43.0582 8.79941 42.8567 9.39941 42.8567 10.0994C42.8567 10.7994 43.0582 11.3994 43.5619 11.7994C44.0656 12.1994 44.5693 12.4994 45.1737 12.4994C45.8789 12.4994 46.3826 12.2994 46.8863 11.7994C47.1886 11.4994 47.39 11.0994 47.39 10.5994H45.1737V9.79941H48.0952V10.1994ZM52.7293 7.69941H50.0093V9.59941H52.5278V10.2994H50.0093V12.1994H52.7293V12.9994H49.2034V6.99941H52.7293V7.69941ZM56.0537 12.9994H55.2478V7.69941H53.5352V6.99941H57.7663V7.69941H56.0537V12.9994ZM60.6878 12.9994V6.99941H61.4937V12.9994H60.6878ZM64.9189 12.9994H64.113V7.69941H62.4004V6.99941H66.5308V7.69941H64.8182V12.9994H64.9189ZM74.4893 12.1994C73.8849 12.7994 73.1797 13.0994 72.273 13.0994C71.3663 13.0994 70.6611 12.7994 70.0567 12.1994C69.4523 11.5994 69.15 10.8994 69.15 9.99941C69.15 9.09941 69.4523 8.39941 70.0567 7.79941C70.6611 7.19941 71.3663 6.89941 72.273 6.89941C73.1797 6.89941 73.8849 7.19941 74.4893 7.79941C75.0937 8.39941 75.396 9.09941 75.396 9.99941C75.396 10.8994 75.0937 11.5994 74.4893 12.1994ZM70.6612 11.6994C71.0641 12.0994 71.6686 12.3994 72.273 12.3994C72.8774 12.3994 73.4819 12.1994 73.8849 11.6994C74.2878 11.2994 74.59 10.6994 74.59 9.99941C74.59 9.29941 74.3886 8.69941 73.8849 8.29941C73.4819 7.89941 72.8774 7.59941 72.273 7.59941C71.6686 7.59941 71.0641 7.79941 70.6612 8.29941C70.2582 8.69941 69.956 9.29941 69.956 9.99941C69.956 10.6994 70.1574 11.2994 70.6612 11.6994ZM76.5041 12.9994V6.99941H77.4108L80.3323 11.6994V6.99941H81.1382V12.9994H80.3323L77.2093 8.09941V12.9994H76.5041Z" fill="#617288"/>
<path d="M68.95 21.7996C66.5322 21.7996 64.6182 23.5996 64.6182 26.0996C64.6182 28.4996 66.5322 30.3996 68.95 30.3996C71.3678 30.3996 73.2819 28.5996 73.2819 26.0996C73.2819 23.4996 71.3678 21.7996 68.95 21.7996ZM68.95 28.5996C67.6404 28.5996 66.5322 27.4996 66.5322 25.9996C66.5322 24.4996 67.6404 23.3996 68.95 23.3996C70.2596 23.3996 71.3678 24.3996 71.3678 25.9996C71.3678 27.4996 70.2596 28.5996 68.95 28.5996ZM59.5811 21.7996C57.1633 21.7996 55.2493 23.5996 55.2493 26.0996C55.2493 28.4996 57.1633 30.3996 59.5811 30.3996C61.9989 30.3996 63.913 28.5996 63.913 26.0996C63.913 23.4996 61.9989 21.7996 59.5811 21.7996ZM59.5811 28.5996C58.2715 28.5996 57.1633 27.4996 57.1633 25.9996C57.1633 24.4996 58.2715 23.3996 59.5811 23.3996C60.8907 23.3996 61.9989 24.3996 61.9989 25.9996C61.9989 27.4996 60.8907 28.5996 59.5811 28.5996ZM48.3989 23.0996V24.8996H52.7307C52.63 25.8996 52.227 26.6996 51.7233 27.1996C51.1189 27.7996 50.1115 28.4996 48.3989 28.4996C45.6789 28.4996 43.6641 26.3996 43.6641 23.6996C43.6641 20.9996 45.7796 18.8996 48.3989 18.8996C49.8093 18.8996 50.9174 19.4996 51.7233 20.1996L53.033 18.8996C51.9248 17.8996 50.5144 17.0996 48.4996 17.0996C44.873 17.0996 41.75 20.0996 41.75 23.6996C41.75 27.2996 44.873 30.2996 48.4996 30.2996C50.5144 30.2996 51.9248 29.6996 53.1337 28.3996C54.3426 27.1996 54.7456 25.4996 54.7456 24.1996C54.7456 23.7996 54.7456 23.3996 54.6448 23.0996H48.3989ZM94.1352 24.4996C93.7322 23.4996 92.7248 21.7996 90.5085 21.7996C88.2922 21.7996 86.4789 23.4996 86.4789 26.0996C86.4789 28.4996 88.2922 30.3996 90.71 30.3996C92.6241 30.3996 93.833 29.1996 94.2359 28.4996L92.8256 27.4996C92.3219 28.1996 91.7174 28.6996 90.71 28.6996C89.7026 28.6996 89.0982 28.2996 88.5945 27.3996L94.3367 24.9996L94.1352 24.4996ZM88.2922 25.8996C88.2922 24.2996 89.6019 23.3996 90.5085 23.3996C91.2137 23.3996 91.9189 23.7996 92.1204 24.2996L88.2922 25.8996ZM83.5574 29.9996H85.4715V17.4996H83.5574V29.9996ZM80.5352 22.6996C80.0315 22.1996 79.2256 21.6996 78.2182 21.6996C76.1026 21.6996 74.0878 23.5996 74.0878 25.9996C74.0878 28.3996 76.0019 30.1996 78.2182 30.1996C79.2256 30.1996 80.0315 29.6996 80.4345 29.1996H80.5352V29.7996C80.5352 31.3996 79.6285 32.2996 78.2182 32.2996C77.11 32.2996 76.3041 31.4996 76.1026 30.7996L74.4907 31.4996C74.9944 32.5996 76.2033 33.9996 78.3189 33.9996C80.5352 33.9996 82.3485 32.6996 82.3485 29.5996V21.9996H80.5352V22.6996ZM78.3189 28.5996C77.0093 28.5996 75.9011 27.4996 75.9011 25.9996C75.9011 24.4996 77.0093 23.3996 78.3189 23.3996C79.6285 23.3996 80.6359 24.4996 80.6359 25.9996C80.6359 27.4996 79.6285 28.5996 78.3189 28.5996ZM102.9 17.4996H98.3663V29.9996H100.28V25.2996H102.9C105.015 25.2996 107.03 23.7996 107.03 21.3996C107.03 18.9996 105.015 17.4996 102.9 17.4996ZM103 23.4996H100.28V19.1996H103C104.411 19.1996 105.217 20.3996 105.217 21.2996C105.116 22.3996 104.31 23.4996 103 23.4996ZM114.586 21.6996C113.175 21.6996 111.765 22.2996 111.261 23.5996L112.974 24.2996C113.377 23.5996 113.981 23.3996 114.686 23.3996C115.694 23.3996 116.6 23.9996 116.701 24.9996V25.0996C116.399 24.8996 115.593 24.5996 114.787 24.5996C112.974 24.5996 111.16 25.5996 111.16 27.3996C111.16 29.0996 112.671 30.1996 114.283 30.1996C115.593 30.1996 116.197 29.5996 116.701 28.9996H116.802V29.9996H118.615V25.1996C118.414 22.9996 116.701 21.6996 114.586 21.6996ZM114.384 28.5996C113.78 28.5996 112.873 28.2996 112.873 27.4996C112.873 26.4996 113.981 26.1996 114.888 26.1996C115.694 26.1996 116.097 26.3996 116.6 26.5996C116.399 27.7996 115.391 28.5996 114.384 28.5996ZM124.962 21.9996L122.846 27.3996H122.746L120.529 21.9996H118.514L121.839 29.5996L119.925 33.7996H121.839L126.977 21.9996H124.962ZM108.037 29.9996H109.951V17.4996H108.037V29.9996Z" fill="#617288"/>
<path d="M10.8209 7.5C10.5187 7.8 10.418 8.3 10.418 8.9V31C10.418 31.6 10.6195 32.1 10.9217 32.4L11.0224 32.5L23.5143 20.1V19.9L10.8209 7.5Z" fill="url(#paint0_linear)"/>
<path d="M27.5444 24.2998L23.4141 20.1998V19.8998L27.5444 15.7998L27.6452 15.8998L32.5815 18.6998C33.9918 19.4998 33.9918 20.7998 32.5815 21.5998L27.5444 24.2998Z" fill="url(#paint1_linear)"/>
<path d="M27.644 24.2L23.4129 20L10.8203 32.5C11.324 33 12.0292 33 12.9359 32.6L27.644 24.2Z" fill="url(#paint2_linear)"/>
<path d="M27.644 15.7991L12.9359 7.49914C12.0292 6.99914 11.324 7.09914 10.8203 7.59914L23.4129 19.9991L27.644 15.7991Z" fill="url(#paint3_linear)"/>
<path opacity="0.2" d="M27.5433 24.1001L12.9359 32.3001C12.1299 32.8001 11.4248 32.7001 10.9211 32.3001L10.8203 32.4001L10.9211 32.5001C11.4248 32.9001 12.1299 33.0001 12.9359 32.5001L27.5433 24.1001Z" fill="black"/>
<path opacity="0.2" d="M10.8209 32.3C10.5187 32 10.418 31.5 10.418 30.9V31C10.418 31.6 10.6195 32.1 10.9217 32.4V32.3H10.8209ZM32.5809 21.3L27.5439 24.1L27.6446 24.2L32.5809 21.4C33.2861 21 33.5883 20.5 33.5883 20C33.5883 20.5 33.1854 20.9 32.5809 21.3Z" fill="black"/>
<path opacity="0.2" d="M12.9365 7.59978L32.5809 18.6998C33.1854 19.0998 33.5883 19.4998 33.5883 19.9998C33.5883 19.4998 33.2861 18.9998 32.5809 18.5998L12.9365 7.49978C11.5261 6.69978 10.418 7.29978 10.418 8.89978V8.99978C10.418 7.49978 11.5261 6.79978 12.9365 7.59978Z" fill="white"/>
<defs>
<linearGradient id="paint0_linear" x1="22.3054" y1="8.71" x2="5.52283" y2="25.6159" gradientUnits="userSpaceOnUse">
<stop stop-color="#00A0FF"/>
<stop offset="0.007" stop-color="#00A1FF"/>
<stop offset="0.26" stop-color="#00BEFF"/>
<stop offset="0.512" stop-color="#00D2FF"/>
<stop offset="0.76" stop-color="#00DFFF"/>
<stop offset="1" stop-color="#00E3FF"/>
</linearGradient>
<linearGradient id="paint1_linear" x1="34.4291" y1="20.0008" x2="10.0528" y2="20.0008" gradientUnits="userSpaceOnUse">
<stop stop-color="#FFE000"/>
<stop offset="0.409" stop-color="#FFBD00"/>
<stop offset="0.775" stop-color="#FFA500"/>
<stop offset="1" stop-color="#FF9C00"/>
</linearGradient>
<linearGradient id="paint2_linear" x1="25.3542" y1="22.296" x2="2.5968" y2="45.222" gradientUnits="userSpaceOnUse">
<stop stop-color="#FF3A44"/>
<stop offset="1" stop-color="#C31162"/>
</linearGradient>
<linearGradient id="paint3_linear" x1="7.69433" y1="0.175137" x2="17.857" y2="10.4131" gradientUnits="userSpaceOnUse">
<stop stop-color="#32A071"/>
<stop offset="0.069" stop-color="#2DA771"/>
<stop offset="0.476" stop-color="#15CF74"/>
<stop offset="0.801" stop-color="#06E775"/>
<stop offset="1" stop-color="#00F076"/>
</linearGradient>
</defs>
</svg>
