<svg width="280" height="80" viewBox="0 0 280 80" fill="none" xmlns="http://www.w3.org/2000/svg">
<path d="M269.63 80H10.3704C4.56296 80 0 75.6 0 70V10C0 4.4 4.56296 0 10.3704 0H269.63C275.437 0 280 4.4 280 10V70C280 75.6 275.437 80 269.63 80Z" fill="#617288"/>
<path d="M269.63 1.6C274.4 1.6 278.341 5.4 278.341 10V70C278.341 74.6 274.4 78.4 269.63 78.4H10.3704C5.6 78.4 1.65926 74.6 1.65926 70V10C1.65926 5.4 5.6 1.6 10.3704 1.6H269.63ZM269.63 0H10.3704C4.56296 0 0 4.6 0 10V70C0 75.6 4.56296 80 10.3704 80H269.63C275.437 80 280 75.6 280 70V10C280 4.6 275.437 0 269.63 0Z" fill="white"/>
<path d="M98.3116 20.3998C98.3116 21.9998 97.8968 23.3998 96.8598 24.3998C95.6153 25.5998 94.1635 26.1998 92.2968 26.1998C90.4301 26.1998 88.9783 25.5998 87.7338 24.3998C86.4894 23.1998 85.8672 21.7998 85.8672 19.9998C85.8672 18.1998 86.4894 16.7998 87.7338 15.5998C88.9783 14.3998 90.4301 13.7998 92.2968 13.7998C93.1264 13.7998 93.9561 13.9998 94.7857 14.3998C95.6153 14.7998 96.2376 15.1998 96.6524 15.7998L95.6153 16.7998C94.7857 15.7998 93.7487 15.3998 92.2968 15.3998C91.0524 15.3998 89.8079 15.7998 88.9783 16.7998C87.9413 17.5998 87.5264 18.7998 87.5264 20.1998C87.5264 21.5998 87.9413 22.7998 88.9783 23.5998C90.0153 24.3998 91.0524 24.9998 92.2968 24.9998C93.7487 24.9998 94.7857 24.5998 95.8227 23.5998C96.445 22.9998 96.8598 22.1998 96.8598 21.1998H92.2968V19.5998H98.3116V20.3998ZM107.852 15.3998H102.252V19.1998H107.438V20.5998H102.252V24.3998H107.852V25.9998H100.593V13.9998H107.852V15.3998ZM114.697 25.9998H113.038V15.3998H109.512V13.9998H118.223V15.3998H114.697V25.9998ZM124.238 25.9998V13.9998H125.897V25.9998H124.238ZM132.949 25.9998H131.289V15.3998H127.763V13.9998H136.267V15.3998H132.741V25.9998H132.949ZM152.652 24.3998C151.408 25.5998 149.956 26.1998 148.089 26.1998C146.223 26.1998 144.771 25.5998 143.526 24.3998C142.282 23.1998 141.66 21.7998 141.66 19.9998C141.66 18.1998 142.282 16.7998 143.526 15.5998C144.771 14.3998 146.223 13.7998 148.089 13.7998C149.956 13.7998 151.408 14.3998 152.652 15.5998C153.897 16.7998 154.519 18.1998 154.519 19.9998C154.519 21.7998 153.897 23.1998 152.652 24.3998ZM144.771 23.3998C145.601 24.1998 146.845 24.7998 148.089 24.7998C149.334 24.7998 150.578 24.3998 151.408 23.3998C152.238 22.5998 152.86 21.3998 152.86 19.9998C152.86 18.5998 152.445 17.3998 151.408 16.5998C150.578 15.7998 149.334 15.1998 148.089 15.1998C146.845 15.1998 145.601 15.5998 144.771 16.5998C143.941 17.3998 143.319 18.5998 143.319 19.9998C143.319 21.3998 143.734 22.5998 144.771 23.3998ZM156.801 25.9998V13.9998H158.667L164.682 23.3998V13.9998H166.341V25.9998H164.682L158.252 16.1998V25.9998H156.801Z" fill="white"/>
<path d="M141.244 43.6002C136.266 43.6002 132.326 47.2002 132.326 52.2002C132.326 57.0002 136.266 60.8002 141.244 60.8002C146.222 60.8002 150.163 57.2002 150.163 52.2002C150.163 47.0002 146.222 43.6002 141.244 43.6002ZM141.244 57.2002C138.548 57.2002 136.266 55.0002 136.266 52.0002C136.266 49.0002 138.548 46.8002 141.244 46.8002C143.94 46.8002 146.222 48.8002 146.222 52.0002C146.222 55.0002 143.94 57.2002 141.244 57.2002ZM121.955 43.6002C116.977 43.6002 113.037 47.2002 113.037 52.2002C113.037 57.0002 116.977 60.8002 121.955 60.8002C126.933 60.8002 130.874 57.2002 130.874 52.2002C130.874 47.0002 126.933 43.6002 121.955 43.6002ZM121.955 57.2002C119.259 57.2002 116.977 55.0002 116.977 52.0002C116.977 49.0002 119.259 46.8002 121.955 46.8002C124.652 46.8002 126.933 48.8002 126.933 52.0002C126.933 55.0002 124.652 57.2002 121.955 57.2002ZM98.933 46.2002V49.8002H107.852C107.644 51.8002 106.815 53.4002 105.777 54.4002C104.533 55.6002 102.459 57.0002 98.933 57.0002C93.333 57.0002 89.1849 52.8002 89.1849 47.4002C89.1849 42.0002 93.5404 37.8002 98.933 37.8002C101.837 37.8002 104.118 39.0002 105.777 40.4002L108.474 37.8002C106.192 35.8002 103.289 34.2002 99.1404 34.2002C91.6738 34.2002 85.2441 40.2002 85.2441 47.4002C85.2441 54.6002 91.6738 60.6002 99.1404 60.6002C103.289 60.6002 106.192 59.4002 108.681 56.8002C111.17 54.4002 112 51.0002 112 48.4002C112 47.6002 112 46.8002 111.792 46.2002H98.933ZM193.096 49.0002C192.266 47.0002 190.192 43.6002 185.629 43.6002C181.066 43.6002 177.333 47.0002 177.333 52.2002C177.333 57.0002 181.066 60.8002 186.044 60.8002C189.985 60.8002 192.474 58.4002 193.303 57.0002L190.4 55.0002C189.363 56.4002 188.118 57.4002 186.044 57.4002C183.97 57.4002 182.726 56.6002 181.689 54.8002L193.511 50.0002L193.096 49.0002ZM181.066 51.8002C181.066 48.6002 183.763 46.8002 185.629 46.8002C187.081 46.8002 188.533 47.6002 188.948 48.6002L181.066 51.8002ZM171.318 60.0002H175.259V35.0002H171.318V60.0002ZM165.096 45.4002C164.059 44.4002 162.4 43.4002 160.326 43.4002C155.97 43.4002 151.822 47.2002 151.822 52.0002C151.822 56.8002 155.763 60.4002 160.326 60.4002C162.4 60.4002 164.059 59.4002 164.889 58.4002H165.096V59.6002C165.096 62.8002 163.229 64.6002 160.326 64.6002C158.044 64.6002 156.385 63.0002 155.97 61.6002L152.652 63.0002C153.689 65.2002 156.177 68.0002 160.533 68.0002C165.096 68.0002 168.829 65.4002 168.829 59.2002V44.0002H165.096V45.4002ZM160.533 57.2002C157.837 57.2002 155.555 55.0002 155.555 52.0002C155.555 49.0002 157.837 46.8002 160.533 46.8002C163.229 46.8002 165.303 49.0002 165.303 52.0002C165.303 55.0002 163.229 57.2002 160.533 57.2002ZM211.14 35.0002H201.807V60.0002H205.748V50.6002H211.14C215.496 50.6002 219.644 47.6002 219.644 42.8002C219.644 38.0002 215.496 35.0002 211.14 35.0002ZM211.348 47.0002H205.748V38.4002H211.348C214.252 38.4002 215.911 40.8002 215.911 42.6002C215.703 44.8002 214.044 47.0002 211.348 47.0002ZM235.2 43.4002C232.296 43.4002 229.392 44.6002 228.355 47.2002L231.881 48.6002C232.711 47.2002 233.955 46.8002 235.407 46.8002C237.481 46.8002 239.348 48.0002 239.555 50.0002V50.2002C238.933 49.8002 237.274 49.2002 235.615 49.2002C231.881 49.2002 228.148 51.2002 228.148 54.8002C228.148 58.2002 231.259 60.4002 234.577 60.4002C237.274 60.4002 238.518 59.2002 239.555 58.0002H239.763V60.0002H243.496V50.4002C243.081 46.0002 239.555 43.4002 235.2 43.4002ZM234.785 57.2002C233.54 57.2002 231.674 56.6002 231.674 55.0002C231.674 53.0002 233.955 52.4002 235.822 52.4002C237.481 52.4002 238.311 52.8002 239.348 53.2002C238.933 55.6002 236.859 57.2002 234.785 57.2002ZM256.563 44.0002L252.207 54.8002H252L247.437 44.0002H243.289L250.133 59.2002L246.192 67.6002H250.133L260.711 44.0002H256.563ZM221.718 60.0002H225.659V35.0002H221.718V60.0002Z" fill="white"/>
<path d="M21.5699 15C20.9476 15.6 20.7402 16.6 20.7402 17.8V62C20.7402 63.2 21.155 64.2 21.7773 64.8L21.9847 65L47.7032 40.2V39.8L21.5699 15Z" fill="url(#paint0_linear)"/>
<path d="M55.9998 48.6001L47.4961 40.4001V39.8001L55.9998 31.6001L56.2072 31.8001L66.3702 37.4001C69.2739 39.0001 69.2739 41.6001 66.3702 43.2001L55.9998 48.6001Z" fill="url(#paint1_linear)"/>
<path d="M56.2074 48.4L47.4962 40L21.5703 65C22.6073 66 24.0592 66 25.9259 65.2L56.2074 48.4Z" fill="url(#paint2_linear)"/>
<path d="M56.2074 31.6002L25.9259 15.0002C24.0592 14.0002 22.6073 14.2002 21.5703 15.2002L47.4962 40.0002L56.2074 31.6002Z" fill="url(#paint3_linear)"/>
<path opacity="0.2" d="M55.9999 48.2002L25.9259 64.6002C24.2666 65.6002 22.8148 65.4002 21.7777 64.6002L21.5703 64.8002L21.7777 65.0002C22.8148 65.8002 24.2666 66.0002 25.9259 65.0002L55.9999 48.2002Z" fill="black"/>
<path opacity="0.2" d="M21.5699 64.6C20.9476 64 20.7402 63 20.7402 61.8V62C20.7402 63.2 21.155 64.2 21.7773 64.8V64.6H21.5699ZM66.3699 42.6L55.9995 48.2L56.2069 48.4L66.3699 42.8C67.8217 42 68.4439 41 68.4439 40C68.4439 41 67.6143 41.8 66.3699 42.6Z" fill="black"/>
<path opacity="0.2" d="M25.9254 15.2001L66.3699 37.4001C67.6143 38.2001 68.4439 39.0001 68.4439 40.0001C68.4439 39.0001 67.8217 38.0001 66.3699 37.2001L25.9254 15.0001C23.0217 13.4001 20.7402 14.6001 20.7402 17.8001V18.0001C20.7402 15.0001 23.0217 13.6001 25.9254 15.2001Z" fill="white"/>
<defs>
<linearGradient id="paint0_linear" x1="45.2143" y1="17.42" x2="11.6704" y2="52.2042" gradientUnits="userSpaceOnUse">
<stop stop-color="#00A0FF"/>
<stop offset="0.007" stop-color="#00A1FF"/>
<stop offset="0.26" stop-color="#00BEFF"/>
<stop offset="0.512" stop-color="#00D2FF"/>
<stop offset="0.76" stop-color="#00DFFF"/>
<stop offset="1" stop-color="#00E3FF"/>
</linearGradient>
<linearGradient id="paint1_linear" x1="70.174" y1="40.0021" x2="19.9876" y2="40.0021" gradientUnits="userSpaceOnUse">
<stop stop-color="#FFE000"/>
<stop offset="0.409" stop-color="#FFBD00"/>
<stop offset="0.775" stop-color="#FFA500"/>
<stop offset="1" stop-color="#FF9C00"/>
</linearGradient>
<linearGradient id="paint2_linear" x1="51.493" y1="44.592" x2="6.00706" y2="91.7626" gradientUnits="userSpaceOnUse">
<stop stop-color="#FF3A44"/>
<stop offset="1" stop-color="#C31162"/>
</linearGradient>
<linearGradient id="paint3_linear" x1="15.1345" y1="0.352226" x2="35.447" y2="21.4171" gradientUnits="userSpaceOnUse">
<stop stop-color="#32A071"/>
<stop offset="0.069" stop-color="#2DA771"/>
<stop offset="0.476" stop-color="#15CF74"/>
<stop offset="0.801" stop-color="#06E775"/>
<stop offset="1" stop-color="#00F076"/>
</linearGradient>
</defs>
</svg>
