<svg width="55" height="55" viewBox="0 0 55 55" fill="none" xmlns="http://www.w3.org/2000/svg">
<path d="M54.8347 38.838C54.7008 41.7653 54.2359 43.7643 53.5561 45.5133C52.8658 47.3483 51.7832 49.0104 50.3842 50.3842C49.0108 51.7832 47.3483 52.8662 45.5133 53.5569C43.7639 54.2363 41.7653 54.7008 38.838 54.8338C35.9053 54.9681 34.9683 55 27.5 55C20.0317 55 19.0947 54.9681 16.162 54.8347C13.2347 54.7008 11.2361 54.2359 9.48669 53.5561C7.65171 52.8658 5.98961 51.7832 4.61578 50.3842C3.21678 49.0108 2.13375 47.3487 1.44306 45.5137C0.763702 43.7643 0.299187 41.7653 0.166168 38.8385C0.0318909 35.9053 0 34.9688 0 27.5004C0 20.0317 0.0318909 19.0947 0.166168 16.162C0.299606 13.2351 0.764542 11.2361 1.44432 9.4867C2.13459 7.65213 3.2172 5.98961 4.6162 4.61621C5.98961 3.21721 7.65213 2.13459 9.48711 1.44432C11.2361 0.764126 13.2351 0.29961 16.1624 0.165752C19.0955 0.0318947 20.0321 0.000423431 27.5004 0.000423431C34.9688 0.000423431 35.9058 0.0318947 38.8385 0.165752C41.7657 0.29961 43.7643 0.764126 45.5137 1.44432C49.2076 2.8727 52.1277 5.79281 53.5561 9.4867C54.2363 11.2361 54.7008 13.2351 54.8347 16.162C54.9681 19.0951 55 20.0317 55 27.5C55 34.9688 54.9681 35.9053 54.8347 38.838ZM49.8845 16.3873C49.7623 13.7059 49.3142 12.2499 48.9378 11.281C48.0125 8.88245 46.1171 6.98704 43.7186 6.06179C42.7497 5.68539 41.2936 5.23724 38.6123 5.11513C35.7132 4.98253 34.8433 4.95484 27.5 4.95484C20.1563 4.95484 19.2868 4.98253 16.3873 5.11513C13.7064 5.23724 12.2503 5.68539 11.281 6.06179C10.0867 6.5028 9.00623 7.20566 8.11916 8.11917C7.20566 9.00624 6.5028 10.0863 6.06178 11.281C5.68539 12.2499 5.23724 13.7059 5.11513 16.3873C4.98295 19.2868 4.95483 20.1567 4.95483 27.4996C4.95483 34.8429 4.98295 35.7123 5.11513 38.6123C5.23766 41.2936 5.68539 42.7497 6.06178 43.7186C6.5028 44.9133 7.20608 45.9938 8.11916 46.8808C9.00623 47.7943 10.0867 48.4972 11.2814 48.9378C12.2503 49.3146 13.7064 49.7623 16.3877 49.8849C19.2873 50.0171 20.1571 50.0452 27.5 50.0452H27.4996C34.8425 50.0452 35.7123 50.0171 38.6123 49.8845C41.2936 49.7623 42.7493 49.3142 43.7186 48.9378C44.9128 48.4968 45.9933 47.7939 46.8804 46.8808C47.7939 45.9938 48.4968 44.9133 48.9374 43.7186C49.3142 42.7497 49.7623 41.2936 49.8845 38.6123C50.0166 35.7127 50.0447 34.8429 50.0447 27.5C50.0447 20.1567 50.0171 19.2873 49.8845 16.3873Z" fill="url(#paint0_linear)"/>
<path d="M27.5003 41.6216C19.7013 41.6216 13.3789 35.2988 13.3789 27.4998C13.3789 19.7008 19.7013 13.3784 27.5003 13.3784C35.2997 13.3784 41.622 19.7008 41.622 27.4998C41.622 35.2988 35.2997 41.6216 27.5003 41.6216ZM27.5003 18.3333C22.438 18.3337 18.3337 22.4375 18.3342 27.5002C18.3342 32.5625 22.438 36.6667 27.5007 36.6667C32.5634 36.6663 36.6672 32.5625 36.6672 27.5002C36.6672 22.4375 32.5629 18.3333 27.5003 18.3333Z" fill="url(#paint1_linear)"/>
<path d="M45.4791 42.1797C45.4791 40.3573 44.0016 38.8798 42.1792 38.8798C40.3564 38.8798 38.8789 40.3573 38.8789 42.1797C38.8789 44.0025 40.3564 45.48 42.1792 45.48C44.0016 45.48 45.4791 44.0025 45.4791 42.1797Z" fill="url(#paint2_linear)"/>
<defs>
<linearGradient id="paint0_linear" x1="4.6155" y1="4.61596" x2="50.3845" y2="50.3849" gradientUnits="userSpaceOnUse">
<stop stop-color="#FFD600"/>
<stop offset="0.5" stop-color="#FF0100"/>
<stop offset="1" stop-color="#D800B9"/>
</linearGradient>
<linearGradient id="paint1_linear" x1="17.5151" y1="17.5145" x2="37.486" y2="37.4854" gradientUnits="userSpaceOnUse">
<stop stop-color="#FF6400"/>
<stop offset="0.5" stop-color="#FF0100"/>
<stop offset="1" stop-color="#FD0056"/>
</linearGradient>
<linearGradient id="paint2_linear" x1="39.8456" y1="39.8465" x2="44.5124" y2="44.5133" gradientUnits="userSpaceOnUse">
<stop stop-color="#F30072"/>
<stop offset="1" stop-color="#E50097"/>
</linearGradient>
</defs>
</svg>
