<svg width="24" height="24" viewBox="0 0 24 24" fill="none" xmlns="http://www.w3.org/2000/svg">
<path fill-rule="evenodd" clip-rule="evenodd" d="M2 7C2 4.23858 4.23858 2 7 2H17C19.7614 2 22 4.23858 22 7V17C22 19.7614 19.7614 22 17 22H7C4.23858 22 2 19.7614 2 17V7Z" stroke="white" stroke-width="2" stroke-linecap="round" stroke-linejoin="round"/>
<path fill-rule="evenodd" clip-rule="evenodd" d="M15.9998 11.37C16.2529 13.077 15.3828 14.7538 13.8414 15.5297C12.3 16.3055 10.4349 16.0054 9.21465 14.7852C7.99444 13.5649 7.69431 11.6998 8.47014 10.1584C9.24597 8.61697 10.9228 7.74687 12.6298 7.99999C14.3728 8.25846 15.7414 9.62702 15.9998 11.37Z" stroke="white" stroke-width="2" stroke-linecap="round" stroke-linejoin="round"/>
</svg>
