<svg width="267" height="32" viewBox="0 0 267 32" fill="none" xmlns="http://www.w3.org/2000/svg">
<path fill-rule="evenodd" clip-rule="evenodd" d="M6.95546 8.58719C11.1874 10.9041 14.2179 14.411 16.1934 18.0086L16.1935 18.0085V18.0086C18.1692 14.411 21.1995 10.9042 25.4314 8.58719C25.8627 9.11576 26.2493 9.68195 26.5855 10.2802C19.8236 13.8958 17.0559 19.2954 16.1935 26.5899C15.331 19.2955 12.5634 13.8958 5.80139 10.2802C6.13762 9.68208 6.52422 9.11589 6.95546 8.58719ZM16.1935 15.0561L16.1934 15.0559L16.1935 15.0558V15.0559V15.0561ZM16.1935 11.413C14.586 9.31851 12.5723 7.38849 10.1149 5.86566C9.47386 6.24614 8.8719 6.68497 8.31592 7.17472C11.0869 8.73531 13.2852 10.8627 14.9604 13.1722V13.1723L14.9617 13.1738C15.3875 13.761 15.7795 14.3596 16.1384 14.9637C16.1512 14.985 16.1912 15.055 16.1935 15.0565C16.1957 15.055 16.2357 14.985 16.2484 14.9637C16.6074 14.3596 16.9993 13.761 17.4251 13.1738L17.4264 13.1723V13.1722C19.1017 10.8627 21.3 8.73531 24.071 7.17472C23.515 6.68497 22.9131 6.24614 22.2719 5.86566C19.8145 7.38849 17.8008 9.31851 16.1935 11.413ZM15.9573 2.57062C23.3879 2.57062 29.4115 8.57969 29.4115 15.9922C29.4115 23.4047 23.3879 29.4137 15.9573 29.4137C8.52669 29.4137 2.50293 23.4045 2.50293 15.9922C2.50293 8.57982 8.52669 2.57062 15.9573 2.57062ZM26.3763 5.68797C23.7308 3.04898 20.0761 1.41661 16.0391 1.41661C12.0021 1.41661 8.34703 3.04898 5.70185 5.68797C3.05641 8.32683 1.41992 11.9728 1.41992 16C1.41992 20.027 3.05641 23.6732 5.70185 26.312C8.34716 28.951 12.0021 30.5834 16.0391 30.5834C20.0761 30.5834 23.731 28.951 26.3763 26.312C29.0216 23.673 30.6581 20.027 30.6581 16C30.6581 11.9728 29.0216 8.32683 26.3763 5.68797ZM15.9999 0C20.4178 0 24.4183 1.7911 27.3136 4.6864C30.2089 7.5817 32 11.5821 32 16C32 20.4183 30.2089 24.4183 27.3136 27.3137C24.4184 30.2089 20.4179 32 15.9999 32C11.5817 32 7.5816 30.2089 4.68629 27.3137C1.79098 24.4183 0 20.4183 0 16C0 11.5821 1.79111 7.5817 4.68642 4.6864C7.5816 1.7911 11.5817 0 15.9999 0Z" fill="white"/>
<path fill-rule="evenodd" clip-rule="evenodd" d="M52 10.4328H59.5626V13.5189H54.8696V16.5372H59.5626V19.5781H54.8696V27.0616H52V10.4328ZM67.8103 10.4328H70.6903V27.0616H67.8103V10.4328ZM78.3268 10.4328H86.7492V13.5528H83.9728V27.0616H81.0307V13.5528H78.3268V10.4328ZM94.7276 10.4328H102.363V12.0719H96.2401V17.272H102.363V18.9111H96.2401V27.0616H94.7276V10.4328ZM118.152 10.0148C120.459 10.0148 122.389 10.8551 123.943 12.5356C125.497 14.2162 126.274 16.2849 126.274 18.7418C126.274 21.176 125.499 23.2409 123.949 24.9366C122.398 26.6322 120.507 27.4801 118.277 27.4801C116.018 27.4801 114.112 26.636 112.558 24.9479C111.004 23.2597 110.227 21.2174 110.227 18.8209C110.227 17.2232 110.581 15.7423 111.289 14.3783C111.997 13.0142 112.962 11.9459 114.185 11.1735C115.407 10.401 116.73 10.0148 118.152 10.0148ZM118.225 11.6426C117.099 11.6426 116.032 11.9629 115.024 12.6035C114.015 13.2441 113.228 14.107 112.662 15.1922C112.095 16.2774 111.812 17.487 111.812 18.8209C111.812 20.7954 112.439 22.4628 113.692 23.8231C114.946 25.1834 116.457 25.8635 118.225 25.8635C119.406 25.8635 120.499 25.5508 121.504 24.9253C122.509 24.2998 123.292 23.4444 123.855 22.3592C124.418 21.2739 124.7 20.0682 124.7 18.7418C124.7 17.4229 124.418 16.2303 123.855 15.1639C123.292 14.0975 122.5 13.2441 121.478 12.6035C120.456 11.9629 119.371 11.6426 118.225 11.6426ZM135.289 10.4328H138.324C140.016 10.4328 141.163 10.5082 141.763 10.6589C142.668 10.885 143.404 11.3692 143.97 12.1115C144.536 12.8538 144.82 13.7676 144.82 14.8528C144.82 15.7572 144.624 16.5522 144.234 17.238C143.844 17.9238 143.286 18.442 142.561 18.7924C141.836 19.1428 140.835 19.3218 139.557 19.3294L145.037 27.0616H143.152L137.682 19.3294H136.812V27.0616H135.289V10.4328ZM136.812 12.0609V17.713L139.433 17.7357C140.448 17.7357 141.199 17.6302 141.686 17.4191C142.173 17.2081 142.553 16.8709 142.825 16.4074C143.098 15.9439 143.235 15.4258 143.235 14.853C143.235 14.2954 143.096 13.7885 142.82 13.3326C142.544 12.8767 142.181 12.5507 141.732 12.3548C141.283 12.1588 140.538 12.0609 139.495 12.0609H136.812ZM168.151 13.5191L166.949 14.5252C166.286 13.5832 165.49 12.8691 164.561 12.383C163.632 11.8969 162.612 11.6539 161.5 11.6539C160.285 11.6539 159.159 11.9723 158.123 12.6091C157.087 13.2459 156.284 14.1013 155.714 15.1752C155.144 16.2491 154.86 17.4568 154.86 18.7983C154.86 20.8255 155.497 22.5174 156.771 23.874C158.045 25.2305 159.653 25.9087 161.593 25.9087C163.727 25.9087 165.513 24.9969 166.949 23.1731L168.151 24.1679C167.391 25.223 166.443 26.0387 165.307 26.6153C164.171 27.1918 162.902 27.4801 161.5 27.4801C158.834 27.4801 156.731 26.5117 155.191 24.5748C153.899 22.9395 153.254 20.965 153.254 18.6513C153.254 16.2171 154.036 14.1691 155.6 12.5074C157.165 10.8456 159.124 10.0148 161.479 10.0148C162.902 10.0148 164.187 10.3219 165.333 10.9361C166.48 11.5503 167.419 12.4113 168.151 13.5191ZM177.093 10.4328H185.826V12.0719H178.616V17.272H185.764V18.8998H178.616V25.4224H185.764V27.0616H177.093V10.4328ZM195.69 24.5748C196.042 24.5748 196.343 24.7105 196.591 24.9818C196.84 25.2531 196.964 25.5847 196.964 25.9766C196.964 26.3609 196.84 26.6906 196.591 26.9657C196.343 27.2408 196.042 27.3783 195.69 27.3783C195.338 27.3783 195.037 27.2408 194.789 26.9657C194.54 26.6906 194.416 26.3609 194.416 25.9766C194.416 25.5847 194.54 25.2531 194.789 24.9818C195.037 24.7105 195.338 24.5748 195.69 24.5748Z" fill="white"/>
<path fill-rule="evenodd" clip-rule="evenodd" d="M220.309 13.5191L219.108 14.5252C218.445 13.5832 217.649 12.8691 216.72 12.383C215.791 11.8969 214.77 11.6539 213.658 11.6539C212.443 11.6539 211.317 11.9723 210.281 12.6091C209.245 13.2459 208.442 14.1013 207.873 15.1752C207.303 16.2491 207.018 17.4568 207.018 18.7983C207.018 20.8255 207.655 22.5174 208.929 23.874C210.203 25.2305 211.811 25.9087 213.752 25.9087C215.886 25.9087 217.671 24.9969 219.108 23.1731L220.309 24.1679C219.55 25.223 218.602 26.0387 217.466 26.6153C216.329 27.1918 215.06 27.4801 213.658 27.4801C210.993 27.4801 208.89 26.5117 207.349 24.5748C206.058 22.9395 205.412 20.965 205.412 18.6513C205.412 16.2171 206.194 14.1691 207.759 12.5074C209.323 10.8456 211.283 10.0148 213.638 10.0148C215.06 10.0148 216.345 10.3219 217.491 10.9361C218.638 11.5503 219.577 12.4113 220.309 13.5191ZM234.545 10.0148C236.851 10.0148 238.782 10.8551 240.336 12.5356C241.89 14.2162 242.667 16.2849 242.667 18.7418C242.667 21.176 241.891 23.2409 240.341 24.9366C238.79 26.6322 236.9 27.4801 234.669 27.4801C232.41 27.4801 230.504 26.636 228.95 24.9479C227.396 23.2597 226.619 21.2174 226.619 18.8209C226.619 17.2232 226.973 15.7423 227.681 14.3783C228.389 13.0142 229.354 11.9459 230.577 11.1735C231.799 10.401 233.122 10.0148 234.545 10.0148ZM234.617 11.6426C233.491 11.6426 232.424 11.9629 231.416 12.6035C230.408 13.2441 229.62 14.107 229.054 15.1922C228.488 16.2774 228.204 17.487 228.204 18.8209C228.204 20.7954 228.831 22.4628 230.085 23.8231C231.338 25.1834 232.849 25.8635 234.617 25.8635C235.798 25.8635 236.891 25.5508 237.896 24.9253C238.901 24.2998 239.685 23.4444 240.248 22.3592C240.81 21.2739 241.092 20.0682 241.092 18.7418C241.092 17.4229 240.81 16.2303 240.248 15.1639C239.685 14.0975 238.892 13.2441 237.87 12.6035C236.848 11.9629 235.764 11.6426 234.617 11.6426ZM248.945 27.0616L251.111 10.4328H251.359L257.554 24.0772L263.687 10.4328H263.936L266.122 27.0616H264.62L263.128 15.1693L257.741 27.0616H257.357L251.898 15.0789L250.417 27.0616H248.945Z" fill="white"/>
</svg>
