<svg width="32" height="32" viewBox="0 0 32 32" fill="none" xmlns="http://www.w3.org/2000/svg">
<path fill-rule="evenodd" clip-rule="evenodd" d="M6.95546 8.58719C11.1874 10.9041 14.2179 14.411 16.1934 18.0086L16.1935 18.0085V18.0086C18.1692 14.411 21.1995 10.9042 25.4314 8.58719C25.8627 9.11576 26.2493 9.68195 26.5855 10.2802C19.8236 13.8958 17.0559 19.2954 16.1935 26.5899C15.331 19.2955 12.5634 13.8958 5.80139 10.2802C6.13762 9.68208 6.52422 9.11589 6.95546 8.58719ZM16.1935 15.0561L16.1934 15.0559L16.1935 15.0558V15.0559V15.0561ZM16.1935 11.413C14.586 9.31851 12.5723 7.38849 10.1149 5.86566C9.47386 6.24614 8.8719 6.68497 8.31592 7.17472C11.0869 8.73531 13.2852 10.8627 14.9604 13.1722V13.1723L14.9617 13.1738C15.3875 13.761 15.7795 14.3596 16.1384 14.9637C16.1512 14.985 16.1912 15.055 16.1935 15.0565C16.1957 15.055 16.2357 14.985 16.2484 14.9637C16.6074 14.3596 16.9993 13.761 17.4251 13.1738L17.4264 13.1723V13.1722C19.1017 10.8627 21.3 8.73531 24.071 7.17472C23.515 6.68497 22.9131 6.24614 22.2719 5.86566C19.8145 7.38849 17.8008 9.31851 16.1935 11.413ZM15.9573 2.57062C23.3879 2.57062 29.4115 8.57969 29.4115 15.9922C29.4115 23.4047 23.3879 29.4137 15.9573 29.4137C8.52669 29.4137 2.50293 23.4045 2.50293 15.9922C2.50293 8.57982 8.52669 2.57062 15.9573 2.57062ZM26.3763 5.68797C23.7308 3.04898 20.0761 1.41661 16.0391 1.41661C12.0021 1.41661 8.34703 3.04898 5.70185 5.68797C3.05641 8.32683 1.41992 11.9728 1.41992 16C1.41992 20.027 3.05641 23.6732 5.70185 26.312C8.34716 28.951 12.0021 30.5834 16.0391 30.5834C20.0761 30.5834 23.731 28.951 26.3763 26.312C29.0216 23.673 30.6581 20.027 30.6581 16C30.6581 11.9728 29.0216 8.32683 26.3763 5.68797ZM15.9999 0C20.4178 0 24.4183 1.7911 27.3136 4.6864C30.2089 7.5817 32 11.5821 32 16C32 20.4183 30.2089 24.4183 27.3136 27.3137C24.4184 30.2089 20.4179 32 15.9999 32C11.5817 32 7.5816 30.2089 4.68629 27.3137C1.79098 24.4183 0 20.4183 0 16C0 11.5821 1.79111 7.5817 4.68642 4.6864C7.5816 1.7911 11.5817 0 15.9999 0Z" fill="white"/>
</svg>
