<svg width="24" height="24" viewBox="0 0 24 24" fill="none" xmlns="http://www.w3.org/2000/svg">
<g clip-path="url(#clip0)">
<path d="M23.1358 20.244L20.3835 14.3418C18.8637 16.5546 16.4909 18.1303 13.7441 18.6081L16.0481 23.5488C16.3427 24.181 17.2543 24.1388 17.4916 23.486L18.6725 20.242L18.9159 20.1285L22.1599 21.3095C22.8108 21.5483 23.43 20.8737 23.1358 20.244Z" fill="#519BEB"/>
<path d="M12.0008 0C7.25766 0 3.39844 3.85899 3.39844 8.60231C3.39844 13.3456 7.2577 17.2046 12.0008 17.2046C16.7438 17.2046 20.6031 13.3456 20.6031 8.60231C20.6031 3.85899 16.7439 0 12.0008 0ZM16.1864 7.97025L14.661 9.45722L15.0215 11.5574C15.1317 12.1986 14.4561 12.6803 13.8866 12.3817L12.0008 11.3904L10.115 12.3817C9.5422 12.6824 8.87049 12.195 8.98008 11.5574L9.34055 9.45717L7.81519 7.9702C7.35159 7.51824 7.60889 6.72928 8.24855 6.63633L10.3568 6.3301L11.2998 4.4198C11.5851 3.83967 12.4163 3.83916 12.702 4.4198L13.6449 6.3301L15.7532 6.63633C16.3928 6.72924 16.65 7.51824 16.1864 7.97025Z" fill="#519BEB"/>
<path d="M3.6168 14.3418L0.864487 20.244C0.56894 20.8767 1.19369 21.5476 1.84047 21.3093L5.08441 20.1284L5.32778 20.2419L6.50871 23.4859C6.74547 24.1374 7.65696 24.1823 7.95213 23.5488L10.2561 18.6081C7.50939 18.1303 5.13658 16.5547 3.6168 14.3418Z" fill="#519BEB"/>
</g>
<defs>
<clipPath id="clip0">
<rect width="24" height="24" fill="white"/>
</clipPath>
</defs>
</svg>
