<svg width="55" height="55" viewBox="0 0 55 55" fill="none" xmlns="http://www.w3.org/2000/svg">
<g clip-path="url(#clip0)">
<path d="M27.5017 54.9995C42.6894 54.9995 55.0015 42.6874 55.0015 27.4998C55.0015 12.3121 42.6894 0 27.5017 0C12.314 0 0.00195312 12.3121 0.00195312 27.4998C0.00195312 42.6874 12.314 54.9995 27.5017 54.9995Z" fill="#55ACEE"/>
<path d="M44.3457 19.7631C43.1673 20.2857 41.8996 20.6391 40.5701 20.797C41.9275 19.9837 42.9692 18.6969 43.4609 17.1611C42.1908 17.9145 40.7834 18.4611 39.2868 18.7557C38.0877 17.4787 36.3793 16.6807 34.4876 16.6807C30.8581 16.6807 27.9144 19.6244 27.9144 23.2539C27.9144 23.7691 27.9727 24.2706 28.0855 24.752C22.6226 24.4779 17.7788 21.8612 14.5366 17.8831C13.9709 18.8538 13.6464 19.9837 13.6464 21.1881C13.6464 23.4681 14.8077 25.4809 16.5705 26.6594C15.4935 26.6255 14.4792 26.3299 13.5934 25.8363C13.5929 25.8642 13.5929 25.8922 13.5929 25.9196C13.5929 29.1045 15.8597 31.761 18.8661 32.3644C18.3151 32.5154 17.7333 32.5953 17.1347 32.5953C16.7102 32.5953 16.2989 32.5546 15.8979 32.4781C16.7342 35.089 19.1612 36.9895 22.0383 37.043C19.7882 38.8063 16.9543 39.8568 13.8738 39.8568C13.3444 39.8568 12.8199 39.8259 12.3066 39.7646C15.2141 41.6304 18.67 42.7181 22.3819 42.7181C34.4724 42.7181 41.0844 32.7022 41.0844 24.0152C41.0844 23.7304 41.078 23.4465 41.0653 23.1652C42.3506 22.2387 43.4648 21.0813 44.3457 19.7631Z" fill="#F1F2F2"/>
</g>
<defs>
<clipPath id="clip0">
<rect width="55" height="55" fill="white"/>
</clipPath>
</defs>
</svg>
