<svg width="40" height="40" viewBox="0 0 40 40" fill="none" xmlns="http://www.w3.org/2000/svg">
<path d="M20 40C31.0457 40 40 31.0457 40 20C40 8.9543 31.0457 0 20 0C8.9543 0 0 8.9543 0 20C0 31.0457 8.9543 40 20 40Z" fill="#F0F0F0"/>
<path d="M4.13484 7.82349C2.56383 9.86747 1.37922 12.2233 0.689453 14.7826H11.094L4.13484 7.82349Z" fill="#0052B4"/>
<path d="M39.3106 14.7828C38.6209 12.2236 37.4362 9.86772 35.8652 7.82373L28.9062 14.7828H39.3106Z" fill="#0052B4"/>
<path d="M0.689453 25.2173C1.3793 27.7765 2.56391 30.1324 4.13484 32.1763L11.0938 25.2173H0.689453Z" fill="#0052B4"/>
<path d="M32.1778 4.13443C30.1338 2.56342 27.778 1.37881 25.2188 0.688965V11.0934L32.1778 4.13443Z" fill="#0052B4"/>
<path d="M7.82422 35.8654C9.8682 37.4364 12.2241 38.621 14.7833 39.3109V28.9065L7.82422 35.8654Z" fill="#0052B4"/>
<path d="M14.7832 0.688965C12.224 1.37881 9.86812 2.56342 7.82422 4.13436L14.7832 11.0933V0.688965Z" fill="#0052B4"/>
<path d="M25.2188 39.3109C27.778 38.621 30.1338 37.4364 32.1777 35.8655L25.2188 28.9065V39.3109Z" fill="#0052B4"/>
<path d="M28.9062 25.2173L35.8652 32.1763C37.4362 30.1324 38.6209 27.7765 39.3106 25.2173H28.9062Z" fill="#0052B4"/>
<path d="M39.8307 17.3913H22.6088H22.6087V0.169297C21.7548 0.058125 20.8841 0 20 0C19.1157 0 18.2452 0.058125 17.3913 0.169297V17.3912V17.3913H0.169297C0.058125 18.2452 0 19.1159 0 20C0 20.8843 0.058125 21.7548 0.169297 22.6087H17.3912H17.3913V39.8307C18.2452 39.9419 19.1157 40 20 40C20.8841 40 21.7548 39.942 22.6087 39.8307V22.6088V22.6087H39.8307C39.9419 21.7548 40 20.8843 40 20C40 19.1159 39.9419 18.2452 39.8307 17.3913Z" fill="#D80027"/>
<path d="M25.2168 25.2176L34.1415 34.1423C34.552 33.732 34.9435 33.303 35.3171 32.8583L27.6763 25.2175H25.2168V25.2176Z" fill="#D80027"/>
<path d="M14.7822 25.2175H14.782L5.85742 34.1421C6.26773 34.5526 6.69672 34.9442 7.14141 35.3178L14.7822 27.6768V25.2175Z" fill="#D80027"/>
<path d="M14.782 14.7828V14.7827L5.85727 5.85791C5.4468 6.26822 5.05523 6.69721 4.68164 7.1419L12.3225 14.7828H14.782V14.7828Z" fill="#D80027"/>
<path d="M25.2168 14.7828L34.1416 5.85792C33.7312 5.44745 33.3023 5.05589 32.8576 4.68237L25.2168 12.3232V14.7828Z" fill="#D80027"/>
</svg>
